<svg width="179" height="43" viewBox="0 0 179 43" fill="none" xmlns="http://www.w3.org/2000/svg">
<path d="M13.8945 14.4577L27.9419 33.5152H22.4183L10.7045 18.051L4.57116 24.7481V33.5152H0V0H4.57116V18.8171L21.6088 0H27.0844L13.8945 14.4577Z" fill="#0327AB"/>
<mask id="mask0_7066_32" style="mask-type:luminance" maskUnits="userSpaceOnUse" x="53" y="16" width="3" height="5">
<path d="M53.8658 16.7769H55.1267V20.7572H53.8658V16.7769Z" fill="white"/>
</mask>
<g mask="url(#mask0_7066_32)">
<path d="M54.4838 18.7827C54.5289 18.9564 54.453 19.1207 54.3984 19.0622C54.5698 19.4024 54.4394 19.4238 54.6726 19.4472C54.7989 19.6703 54.653 19.9319 54.5462 19.6758L54.7229 20.3366L54.7384 19.9319C54.9384 20.0338 54.7112 20.5771 54.9444 20.7043L54.8903 19.9671L54.9561 20.0005C54.8784 19.8363 54.8903 19.5075 54.9094 19.3904C54.9444 19.4041 54.993 19.3887 55.0066 19.5194C54.9139 18.624 54.6416 19.3163 54.4725 18.6048C54.4862 18.6477 54.4921 18.7022 54.4838 18.7827ZM54.8221 17.9513L54.5076 17.7035L54.4394 17.1812C54.3557 17.1973 54.1966 16.8528 54.1907 17.1209C54.2157 17.1656 54.2644 17.2539 54.2761 17.3316C54.1812 17.328 54.1166 17.1694 54.0603 17.0385C53.9962 16.9077 53.9303 16.8081 53.868 16.906C54.0412 17.2695 53.998 17.3436 54.2079 17.5448C54.278 17.9088 54.3207 18.1745 54.272 18.3583C54.3148 18.4603 54.4275 18.4562 54.4702 18.5911C54.4625 18.5599 54.4571 18.5325 54.4489 18.4992L54.7153 18.4365C54.6375 18.3291 54.6548 18.2115 54.618 18.0849C54.618 18.0849 54.6488 18.116 54.6879 18.1686C54.727 18.2197 54.7775 18.2879 54.828 18.3565L55.032 18.6359C55.1425 18.517 55.1371 18.3053 55.1116 18.0945C55.0766 17.885 55.0066 17.6778 55.0279 17.5448C54.8825 17.8932 54.8612 17.334 54.8221 17.9518V17.9513Z" fill="#DC2626"/>
</g>
<path d="M54.4706 18.5888C54.4706 18.5929 54.4729 18.5988 54.4729 18.6025C54.4729 18.5988 54.4729 18.5929 54.4706 18.5888ZM33.4224 26.9679C33.4924 27.0538 33.5642 27.042 33.6015 27.0346C33.6015 27.0346 33.5546 26.9739 33.4847 26.8801C33.4497 26.8329 33.4087 26.7803 33.366 26.7213C33.3292 26.6592 33.2883 26.5942 33.2479 26.5279L32.9251 26.0002C32.8824 26.0666 32.9928 26.4223 32.8301 26.2389C32.8183 26.3715 33.0474 26.6198 33.1524 26.6084L33.0124 26.5883C33.2728 26.7625 33.1638 27.0776 32.9856 26.9683L33.0011 26.9875L33.4633 27.1558L33.9137 27.3081C33.7723 27.0616 33.6383 27.2477 33.4224 26.9683V26.9679ZM53.1789 22.5654C53.1789 22.7337 53.202 22.7589 53.2292 22.7451C53.2202 22.6829 53.2034 22.6226 53.1784 22.5654H53.1789ZM34.1242 27.3786C34.1183 27.3844 34.4115 27.4508 34.4115 27.4508C34.3197 27.4132 34.2229 27.3886 34.1242 27.3786ZM30.9606 27.2925C30.9529 27.2961 30.9429 27.298 30.9369 27.31L31.0807 27.3822C31.0807 27.3803 31.0793 27.3803 31.0793 27.3803C31.0406 27.3496 31.0011 27.3204 30.9606 27.2925ZM38.7386 29.9609C38.7641 29.965 38.7841 29.9692 38.8128 29.9746C38.7887 29.9673 38.7641 29.9627 38.7386 29.9609ZM28.547 23.701L28.8815 24.3581C28.7843 24.2858 28.8929 24.6141 28.7688 24.4929C28.7943 24.5442 28.8889 24.7824 28.9084 24.7042L28.8679 24.5634C29.1806 24.8624 29.1884 24.626 29.5575 25.1423C29.5575 24.9448 29.5148 24.8177 29.4507 24.7198C29.3961 24.6201 29.3207 24.5478 29.2447 24.4637C29.2139 24.4029 29.1925 24.348 29.1688 24.2954L28.7201 23.8029L28.547 23.701ZM50.1357 30.2856L50.1411 30.3034C50.1435 30.2933 50.1394 30.2892 50.1357 30.2856Z" fill="#DC2626"/>
<path d="M50.1666 30.3756L50.1411 30.301C50.1394 30.3542 50.0557 30.4574 50.1666 30.3756ZM33.9587 27.3982C33.996 27.3785 34.0542 27.3707 34.1242 27.3785L33.9183 27.3122C33.9315 27.3337 33.9451 27.3666 33.9587 27.3982ZM33.3174 27.357L33.0047 26.9893L32.8142 26.9015C32.9387 27.042 33.1074 27.1905 33.3174 27.357ZM38.1792 29.5799C38.9764 29.9298 37.8778 29.7286 38.2141 29.9632C38.4491 30.0491 38.5855 29.9394 38.741 29.9608C38.3932 29.8927 38.4551 29.8044 38.5173 29.7125C38.5818 29.617 38.6382 29.5328 38.3232 29.4117C38.4146 29.3256 38.545 29.3311 38.6809 29.3568C38.8187 29.3783 38.9568 29.4391 39.0519 29.5072C39.2191 29.8027 38.7877 29.5818 38.6495 29.7596C38.9237 29.82 38.8905 29.7674 39.0422 29.691C39.4268 29.9124 39.9518 29.6814 40.1223 30.0491C40.4314 30.0858 40.4354 29.9591 40.6277 29.8767C40.6645 29.7633 40.5618 29.7166 40.439 29.6755C40.3209 29.6225 40.1846 29.564 40.1536 29.4601C40.1714 29.4858 40.2046 29.5347 40.1845 29.564L39.9514 29.4528C40.1655 29.5936 39.8605 29.6718 39.7263 29.6563C39.6309 29.6384 39.4423 29.6014 39.4891 29.5429C39.4873 29.5484 39.6428 29.5328 39.6428 29.5328C39.485 29.4235 39.2032 29.5561 39.0577 29.3746C39.0655 29.3215 39.145 29.3234 39.1664 29.2964C38.91 29.365 38.7019 29.3083 38.3636 29.2529L38.6287 29.1245C38.2978 29.2416 37.7636 28.9329 37.5009 28.5807C37.5187 28.6374 37.575 28.7056 37.5109 28.7179C37.2737 28.6374 37.2042 28.4111 37.365 28.3636C37.2915 28.3736 37.2055 28.3461 37.1277 28.2858C37.05 28.2231 36.9705 28.139 36.8892 28.0548C36.7278 27.8829 36.5373 27.7384 36.3468 27.7169C36.3468 27.7169 35.8901 27.695 35.3892 27.6423C35.0637 27.5861 34.7396 27.5216 34.4173 27.4489C34.4814 27.4764 34.5437 27.5098 34.5983 27.5523C34.5456 27.7987 34.6238 27.8476 34.2988 27.7754C34.5573 27.9008 34.6097 27.7146 34.876 27.9982C34.7028 27.9529 34.4951 28.0918 34.7519 28.3854C35.1869 28.6297 35.5851 28.7783 36.0246 28.8213C36.2323 28.8506 36.44 28.878 36.6518 28.9055C36.8559 28.9365 37.0778 28.9443 37.2855 28.9914C37.2564 29.0655 37.3864 29.1789 37.5536 29.2982C37.7246 29.4093 37.946 29.5036 38.0782 29.5914C37.8996 29.6892 37.6587 29.6384 37.4255 29.5484C37.5536 29.6362 37.7987 29.7478 37.9732 29.8438L38.1792 29.5799Z" fill="#DC2626"/>
<path d="M36.1233 28.9585C36.1332 28.9837 36.1487 29.0029 36.1623 29.0248C36.1605 29.007 36.151 28.9855 36.1233 28.9585ZM37.3573 29.5055C37.3514 29.5096 37.3497 29.5132 37.3455 29.5192L37.4174 29.5502C37.3983 29.5348 37.3728 29.5173 37.3573 29.5055ZM33.8288 27.803C33.7528 27.7892 33.716 27.7636 33.6456 27.7444C33.6793 27.7636 33.716 27.7929 33.757 27.8167C33.8014 27.8322 33.8305 27.834 33.8288 27.803ZM33.9183 27.4741L33.986 27.4585C33.9764 27.4352 33.9688 27.4197 33.9588 27.3983C33.9278 27.4137 33.9101 27.4389 33.9183 27.4746V27.4741ZM41.2263 31.8651L41.3232 31.8359C41.2668 31.8359 41.2418 31.8477 41.2263 31.8651Z" fill="#DC2626"/>
<path d="M38.9838 30.1955C38.6865 30.1017 38.8715 30.4045 38.4492 30.2522L38.5678 30.3107C38.2182 30.3167 37.7341 29.9906 37.3805 29.8416C37.4606 29.7848 37.2333 29.6248 37.3442 29.5214C37.1087 29.4158 36.8738 29.3098 36.6774 29.3669C36.561 29.2512 36.2924 29.2028 36.1623 29.0267C36.1819 29.152 35.7465 29.0852 36.2205 29.3084C36.1797 29.2923 36.1897 29.3257 36.1511 29.3098C36.3433 29.6212 36.5838 29.5018 36.8228 29.6481C36.9242 29.8128 36.5106 29.6212 36.6306 29.7359C36.8056 29.7949 37.031 29.9669 37.2351 30.0821C37.4487 30.1799 37.6314 30.2289 37.6914 30.0766C37.9328 30.1686 37.9346 30.2481 37.9792 30.3363C38.2282 30.2819 38.5701 30.4224 38.8655 30.565C39.1587 30.7136 39.4269 30.7804 39.4833 30.5669C39.4114 30.5554 39.3164 30.5398 39.2132 30.522C39.1119 30.4964 38.9996 30.4772 38.8828 30.485L38.9838 30.1955ZM34.2311 28.2135C34.2424 28.231 34.2638 28.2502 34.2715 28.2662C34.2602 28.2483 34.2447 28.231 34.2306 28.2135H34.2311ZM33.1898 24.1158L33.502 24.1295C33.6361 24.45 33.7683 24.6494 33.8479 24.8607C33.8911 24.9663 33.9338 25.0678 33.9784 25.1793C34.0306 25.2868 34.1006 25.3962 34.1801 25.5274C34.1706 25.5878 34.1107 25.537 34.0792 25.5114C34.2115 25.6838 34.326 25.9299 34.4838 26.1292C34.6406 26.3286 34.7984 26.5107 34.9419 26.5942C35.0084 26.7137 35.1983 27.0246 35.0375 26.9852C35.1015 27.0191 35.1715 27.0579 35.2183 27.1224C35.1538 27.2084 35.0802 27.0145 35.012 27.0675C35.0488 27.1188 35.0488 27.1499 35.0843 27.138C34.946 27.1206 34.8974 27.4568 34.5628 27.0814C34.6252 26.7786 34.8156 27.3218 34.946 27.0598C34.8392 26.9387 34.771 27.021 34.7361 27.0306C34.606 26.8682 34.6701 26.8233 34.7206 26.7959C34.6079 26.7845 34.5461 26.5047 34.3787 26.491C34.1202 26.1804 34.5556 26.3889 34.3961 26.184C34.3961 26.184 34.3184 26.1919 34.2388 26.2015C34.187 26.2079 34.1352 26.2125 34.0833 26.2152L33.9006 25.8086C33.6947 25.5603 33.6033 25.6367 33.5006 25.709C33.4052 25.7776 33.2688 25.8575 33.0302 25.5448C33.1974 25.5681 33.2788 25.1812 33.1815 24.8487C33.2883 25.0303 33.5878 25.3006 33.6556 25.5622C33.6479 25.1424 33.9433 25.9847 34.0525 25.6957C33.8634 25.6015 33.677 25.3532 33.6438 25.1066L33.6984 25.1657C33.6207 24.9306 33.277 24.8799 33.2261 24.5186C33.1602 24.3581 33.2416 24.3599 33.312 24.3641C33.2284 24.241 33.1329 24.1372 33.1893 24.1158H33.1898ZM33.3684 24.4445C33.3625 24.4459 33.4402 24.6613 33.4402 24.6613C33.4597 24.5949 33.4166 24.5222 33.3684 24.444V24.4445ZM53.2212 14.024C53.2312 14.0533 53.2412 14.0867 53.2507 14.1141C53.2507 14.0908 53.2366 14.0592 53.2212 14.024ZM30.9311 14.4169L31.0307 14.2687C30.9939 14.3154 30.9606 14.3651 30.9311 14.4169ZM32.7329 10.6244L32.8939 10.3898C32.8143 10.4663 32.7697 10.544 32.7329 10.6244ZM52.0185 12.3096L52.0149 12.3018C52.0012 12.2941 51.9894 12.2904 51.9758 12.2804L52.0185 12.3096ZM40.3501 7.57843C40.3928 7.59622 40.4414 7.60992 40.5037 7.61589C40.4918 7.59025 40.4355 7.57889 40.3501 7.57889V7.57843ZM32.7034 10.6674C32.7084 10.6638 32.7134 10.6615 32.7189 10.6597L32.7329 10.6244L32.7034 10.6674ZM29.4625 15.7229C29.4567 15.7641 29.4507 15.8011 29.4471 15.8459C29.4603 15.7896 29.4625 15.7545 29.4625 15.7234V15.7229ZM30.2667 15.7659C30.2589 15.8034 30.2543 15.8414 30.2534 15.8793L30.267 15.7659H30.2667ZM28.827 21.8383L28.8794 22.0825C28.868 21.9614 28.8484 21.891 28.827 21.8383ZM29.8802 16.3032C29.888 16.321 29.8938 16.3389 29.9016 16.3503C29.9052 16.3151 29.898 16.2959 29.8802 16.3037V16.3032ZM53.1885 15.6936C53.1866 15.6895 53.183 15.684 53.183 15.6822L53.1516 15.6895L53.188 15.6936H53.1885ZM53.7694 16.0398C53.7984 16.0983 53.8299 16.161 53.8607 16.2214C53.8385 16.1569 53.808 16.0956 53.7694 16.0398ZM43.805 7.96944C43.8614 8.01884 43.9991 8.08697 43.9254 8.12209C44.0518 8.081 44.0636 7.94427 43.805 7.96944ZM51.2216 15.5743C51.2707 15.5825 51.3131 15.5999 51.358 15.6195C51.2862 15.5784 51.2258 15.5427 51.2216 15.5743ZM51.358 15.6195C51.393 15.6392 51.4317 15.6625 51.4667 15.6799C51.4321 15.6571 51.3958 15.637 51.358 15.6195ZM42.235 10.1338C42.2205 10.1141 42.1986 10.1017 42.1745 10.0986C42.1841 10.1357 42.2055 10.1415 42.235 10.1338Z" fill="#DC2626"/>
<path d="M53.8742 16.3896C53.9461 16.3974 54.3833 17.1891 54.1596 16.4738C54.3542 16.4344 54.4278 16.8959 54.5096 17.0802C54.5174 16.9233 54.6515 17.115 54.7097 17.0505C54.6592 16.9586 54.5814 16.8571 54.5328 16.6964C54.5933 16.5949 54.7469 16.8158 54.7564 17.0231C54.7951 16.7509 54.9896 17.2851 54.9779 16.9192C54.8496 16.5616 54.6806 16.2744 54.527 16.0201C54.3696 15.7659 54.1929 15.5528 53.9383 15.3849C53.9946 15.4746 54.0511 15.5684 54.1097 15.6607C54.1579 15.7581 54.2047 15.856 54.2456 15.9556C54.3288 16.1532 54.3947 16.3466 54.4147 16.5222L54.2006 16.4445C54.2065 16.2369 54.1619 16.0865 54.1014 15.9419C54.0433 15.7975 53.9655 15.6625 53.8861 15.4902C53.8861 15.4902 53.9033 15.5413 53.9306 15.6154C53.9597 15.6895 53.9869 15.7934 54.0124 15.899C54.0628 16.1062 54.1152 16.3151 54.1152 16.3151C54.1133 16.7376 53.991 16.4971 53.857 16.2214C53.8824 16.2936 53.8975 16.3622 53.8742 16.3896ZM52.2729 16.462V16.4756C52.2825 16.4834 52.2906 16.4934 52.3002 16.4971L52.2729 16.462ZM32.3401 21.5096L32.4078 21.5608C32.3769 21.5173 32.3556 21.5041 32.3401 21.5096ZM52.8502 15.7092C52.846 15.7056 52.846 15.7073 52.8502 15.7092V15.7092ZM32.3442 20.0846C32.3478 20.0865 32.3537 20.0883 32.3578 20.0924C32.3537 20.0887 32.3492 20.086 32.3442 20.0846ZM28.6206 19.3319C28.6133 19.3338 28.6051 19.336 28.5956 19.3434C28.6051 19.3844 28.6133 19.3648 28.6206 19.3319ZM32.3282 20.0823C32.3342 20.0823 32.3382 20.0823 32.3442 20.0846C32.3382 20.0823 32.3342 20.081 32.3282 20.0823ZM34.5355 13.4103C34.5355 13.4103 34.4991 13.4062 34.4523 13.4144C34.4564 13.4355 34.4796 13.4396 34.536 13.4103H34.5355ZM33.4086 14.3857C33.3969 14.3898 33.3891 14.3898 33.3778 14.3953L33.4086 14.3857ZM43.4667 7.13661C43.3944 7.12935 43.3212 7.12889 43.249 7.13486C43.3148 7.14083 43.3866 7.14445 43.4667 7.13661ZM35.696 11.2304C35.6864 11.246 35.6764 11.2615 35.6686 11.2757L35.696 11.2656V11.2304Z" fill="#DC2626"/>
<path d="M36.4519 10.9002C36.4383 10.9313 36.4383 10.9569 36.4341 10.9802C36.5396 10.8746 36.7141 10.7671 36.8601 10.6656C37.0132 10.5778 37.1336 10.4895 37.1222 10.3917C37.0795 10.4154 36.93 10.4584 36.7919 10.4795C36.6577 10.5051 36.5414 10.5188 36.5509 10.4466C36.3973 10.5951 36.0692 10.6419 35.9877 10.7283C36.3332 10.6364 36.1005 10.8434 35.9428 11.0132C35.7368 11.0758 35.8941 10.8669 35.7213 10.9331L35.3436 11.2404L35.696 11.0077V11.2322C35.7037 11.2189 35.711 11.2089 35.7191 11.1934C36.2592 10.7342 35.9096 11.3731 36.4514 10.9002H36.4519ZM36.4341 10.9802C36.4032 11.0113 36.3782 11.0425 36.3623 11.0758C36.4168 11.0392 36.4282 11.0095 36.4341 10.9802ZM39.0772 10.1105C39.1082 10.0963 39.1432 10.0793 39.184 10.0537C39.1645 10.0633 39.1177 10.0889 39.0772 10.1105ZM32.6606 26.5887C32.6973 26.5498 32.5869 26.1547 32.4701 26.2288C32.5192 26.3387 32.5692 26.4479 32.6196 26.5594L32.6606 26.5887ZM46.6884 9.70753C46.6457 9.68786 46.6025 9.67054 46.558 9.65497C46.5472 9.65684 46.5358 9.66 46.5253 9.66456C46.5448 9.6957 46.6398 9.70343 46.6884 9.70753ZM36.6286 10.3235C36.5723 10.3821 36.555 10.4191 36.5491 10.4466C36.5873 10.4145 36.6155 10.3715 36.6286 10.3235ZM46.5894 10.0203C46.628 10.0771 46.6862 10.1589 46.6748 10.2156C46.7799 10.2686 46.8825 10.2371 47.0017 10.2669C46.8689 10.2312 46.743 10.1338 46.5894 10.0203ZM47.0112 10.2686L47.0012 10.2669C47.0053 10.2686 47.0089 10.2686 47.0112 10.2686Z" fill="#DC2626"/>
<mask id="mask1_7066_32" style="mask-type:luminance" maskUnits="userSpaceOnUse" x="28" y="7" width="27" height="27">
<path d="M28.1873 7.00403H54.3314V33.8689H28.1873V7.00403Z" fill="white"/>
</mask>
<g mask="url(#mask1_7066_32)">
<path d="M32.7343 26.8251C32.7598 26.8507 32.7867 26.8759 32.8139 26.9014L32.7539 26.874C32.7925 26.9599 32.8216 27.0501 32.8666 27.1319C32.8935 27.1534 32.9231 27.179 32.9539 27.2124C32.9389 27.201 32.9198 27.1959 32.9017 27.1983L32.9422 27.2787C33.193 27.3742 33.593 27.7497 33.7562 27.8142C33.9408 27.9276 34.1335 28.0881 34.2307 28.2112C34.1353 28.1018 33.9857 27.9789 33.9644 28.0744C34.0326 28.2112 34.0498 28.3484 34.1103 28.481C34.1702 28.614 34.2753 28.7507 34.5417 28.8464L34.4289 28.7448C34.3703 28.6941 34.318 28.6415 34.318 28.6415C34.318 28.6415 34.3589 28.6612 34.4289 28.6804L34.6738 28.7608L35.0234 28.8742C35.1125 29.128 34.6757 28.7622 34.5298 28.7782C34.7766 28.9012 34.9108 29.1088 35.0329 29.2867C35.1498 29.4701 35.2797 29.5853 35.4547 29.5601C35.3866 29.7047 35.2739 29.9494 35.5716 30.1524C35.4702 29.8533 35.8084 30.1858 35.7502 29.9041C35.8956 29.9063 36.0316 30.1817 36.1171 30.0902L36.0534 30.1268C36.4338 30.6471 36.8012 30.4263 37.0757 30.43C37.7302 30.6746 37.967 30.9229 38.5192 31.0793C38.5038 31.1849 38.5557 31.5133 38.7815 31.5855C38.9274 31.4955 39.4556 31.5503 39.547 31.3898C39.1738 31.2142 39.1838 31.4548 38.931 31.4328C38.797 31.179 38.9701 31.2453 38.7465 31.04C38.9274 31.2161 39.7315 31.212 39.9243 31.4584L39.8347 31.4603C40.0097 31.5678 40.0992 31.7223 40.2351 31.8339C40.3693 31.9468 40.5515 32.0214 40.8997 31.9358L41.0629 31.9043C41.1442 31.8902 41.226 31.8614 41.226 31.8614C41.2084 31.8787 41.2046 31.9002 41.1951 31.9157C41.7096 31.961 41.562 32.1604 42.1429 32.0274C42.0983 32.037 42.1255 32.0584 42.0811 32.0685C42.4114 32.1896 42.7419 31.9396 42.9824 31.8924C43.1437 32.037 42.9574 32.0452 42.8678 32.1586C43.4641 32.2148 44.0551 31.8183 44.3642 31.5933C44.3642 31.5933 44.3874 31.5951 44.4224 31.5992C44.4574 31.603 44.5059 31.6052 44.5505 31.603C44.6442 31.6011 44.7374 31.6011 44.7374 31.6011C44.5428 31.7264 44.3037 31.9199 44.3874 31.9999C44.5874 31.9396 44.5333 31.8727 44.8228 31.8298C44.7956 31.9377 44.6964 32.0584 44.5837 32.2112C45.2233 32.2189 44.6401 31.8417 45.1278 32.0255C45.3164 31.9784 45.3883 31.8124 45.3746 31.6954C45.3746 31.6954 45.7537 31.7575 45.7519 31.7479C45.7437 31.5915 46.1383 31.437 46.391 31.3199C46.3987 31.2471 46.1246 31.2471 46.0469 31.3372C46.0274 31.2178 46.2782 31.0674 46.4528 31.0048C46.6473 31.2847 47.5355 30.4359 47.5041 30.868C47.691 30.7606 47.8732 30.6042 48.0718 30.4652C48.2641 30.3189 48.476 30.1894 48.6546 30.0294C48.8232 29.8816 48.9891 29.7312 49.1522 29.5781L49.3559 29.3782C49.4123 29.3096 49.4613 29.2432 49.5018 29.1847C49.6923 29.128 49.9758 28.8761 49.9081 29.1358C50.0232 29.0311 50.1277 28.9145 50.219 28.7878C50.3004 28.6708 50.355 28.5413 50.4167 28.4242C50.54 28.1641 50.7086 27.9286 50.9145 27.7283C50.9454 27.7187 50.9027 27.7813 50.8604 27.8494C50.8137 27.9139 50.7686 27.9885 50.8173 28.0135C50.9263 27.8142 51.0527 27.6619 51.2272 27.5014C51.3127 27.4195 51.4022 27.3317 51.4936 27.2279C51.5413 27.1726 51.5868 27.115 51.6295 27.056C51.6686 26.9892 51.7059 26.917 51.7422 26.837C51.6859 26.9385 51.7227 27.0048 51.7422 27.0364C51.6936 27.0167 51.8004 26.7332 51.849 26.5535C51.9249 26.4812 51.8123 26.6883 51.8745 26.6609C52.3059 26.1368 52.4831 25.5501 52.644 24.9877C52.7045 24.6959 52.7585 24.4069 52.8286 24.1156C52.8868 23.8201 52.9254 23.5133 53.0153 23.2005C52.9199 23.5586 53.0831 23.752 53.165 23.7789L53.2599 23.4178C53.1922 23.2531 53.2771 22.9874 53.2232 22.7409C53.2654 22.7199 53.324 22.6161 53.3549 22.7396C53.5103 22.393 53.4717 22.0902 53.3958 21.7774C53.3045 21.4605 53.1994 21.1381 53.2776 20.7005C53.2776 20.7005 53.3689 20.9721 53.4581 21.2437C53.5494 21.5254 53.639 21.8067 53.639 21.8067L53.7986 21.5428L53.8799 21.7971C53.9263 21.926 53.9476 22.055 53.9476 22.055C54.1054 21.7696 53.8349 21.4861 53.9981 21.4627C54.039 21.5291 54.0181 21.6795 54.1012 21.6914C54.1772 21.4061 54.0626 21.3745 54.0413 21.1578C54.358 21.7422 54.2063 22.8973 54.1226 23.5133C54.1226 23.6131 54.0685 23.4136 54.0413 23.3921C53.9886 23.6386 53.8567 23.7597 53.8313 24.0804C53.9108 24.309 53.9636 23.9633 54.0158 23.8146C54.125 23.8655 54.0976 23.9413 54.0704 24.1179C53.9362 24.1179 53.7149 25.0206 53.4581 25.1595C53.3281 25.6054 53.4058 25.6014 53.5127 25.6032C53.6095 25.6014 53.6953 25.5894 53.464 25.9965L53.1841 26.1661C53.1558 26.3097 53.1236 26.4523 53.0872 26.5941C53.0386 26.7391 52.98 26.8855 52.9181 27.0323C52.7859 27.3217 52.6517 27.6285 52.4495 27.8595L52.5213 27.7515C52.51 27.6404 52.3853 27.7264 52.3176 27.7539C51.9831 28.0685 51.9208 28.5454 51.5968 28.6355C51.4954 28.8898 51.3245 29.2044 51.1318 29.5232C50.9282 29.8281 50.6854 30.1172 50.4927 30.3637C50.2168 30.2914 50.9496 29.6851 51.0159 29.402L50.9595 29.4641C50.9222 29.4999 50.8722 29.5442 50.8232 29.5894C50.7241 29.6813 50.6232 29.7733 50.6232 29.7733C50.8681 29.5442 50.9067 29.3937 50.9382 29.1496C50.5922 29.4586 50.6036 29.6932 50.3141 30.049C50.2986 29.9763 50.2268 29.9864 50.075 30.1231L50.1313 30.2836C50.1218 30.2777 50.0963 30.2836 50.0381 30.3129L49.4532 30.8735C49.63 30.8269 49.7178 30.9302 49.8886 30.8054C49.7741 30.778 49.9041 30.655 50.0731 30.5319C49.9896 30.7231 50.2927 30.477 50.3413 30.5415C50.0013 30.7994 49.5914 31.13 49.3909 31.3332L49.2336 31.2609C48.8704 31.4428 48.5459 31.7342 48.2914 31.8398L48.3282 31.7264C47.8851 31.9161 47.4905 32.2016 47.0496 32.2505C46.7119 32.5473 46.2468 32.8857 45.9478 33.1472C45.8819 33.2629 45.5455 33.2881 45.1842 33.3315C44.8228 33.39 44.4224 33.3883 44.1951 33.562C44.1601 33.5465 44.5119 33.3704 44.6637 33.2749C44.3369 33.2963 44.1115 33.5661 43.9815 33.3859C44.7178 33.3411 43.9192 33.2355 44.236 33.1317C43.9019 33.1806 43.5537 33.2881 43.3924 33.3567C43.9446 33.3018 43.2237 33.6654 43.7755 33.5035C43.5674 33.6287 43.311 33.6873 43.0387 33.734C42.7669 33.7751 42.481 33.7948 42.217 33.7669C42.2228 33.6832 42.1569 33.6402 41.9624 33.5949L41.801 33.7106C41.556 33.6755 42.2792 33.5877 41.7874 33.5191C41.531 33.6069 41.1465 33.5757 40.8042 33.5227C40.4624 33.4642 40.1533 33.4313 40.0097 33.6069C39.652 33.3955 40.7651 33.5661 40.2174 33.2904C40.5692 33.1984 41.0043 33.4409 41.1347 33.2377C40.8042 33.2744 41.0333 33.0654 40.8274 33.0379L40.4566 33.1043L40.5343 33.1244C39.9029 33.2355 38.962 32.9347 38.2179 32.7096C37.8761 32.6881 37.5671 32.7018 37.2461 32.6821C36.8975 32.6382 36.5597 32.5312 36.2493 32.3652C36.3856 32.3676 36.2439 32.2678 36.1407 32.1741C36.0394 32.0763 35.9793 31.9825 36.2516 32.0095C35.9757 31.742 35.6102 31.646 35.5561 31.7163C35.8221 31.9139 35.6412 31.8005 35.8589 31.9825C35.6471 31.9742 35.2721 31.7396 35.1576 31.5892C35.2234 31.6381 35.2079 31.6071 35.2411 31.5892C34.9416 31.3235 35.0234 31.5759 34.7648 31.4406C34.7749 31.2686 34.2771 31.0263 34.1139 30.8095C34.1139 30.8095 34.003 30.7953 33.9021 30.7684L33.6943 30.7171C33.9394 30.7565 33.4534 30.4323 33.4921 30.2992C33.2298 30.1817 32.9267 30.1584 32.6762 29.8103C32.843 29.8909 32.4913 29.4545 32.5885 29.359C32.5008 29.2177 32.389 29.0933 32.2581 28.9913C32.1458 28.8838 32.023 28.7937 31.9007 28.7037C31.6617 28.5202 31.413 28.3342 31.3081 27.9944C31.3472 27.9944 31.4908 28.0607 31.4167 27.8732C31.3039 27.7616 31.1758 27.5193 31.0766 27.3821L31.0885 27.3843L31.0808 27.3785C31.0322 27.3121 30.9912 27.2765 30.9603 27.2907C30.8303 27.2005 30.7117 27.1397 30.583 27.046C30.4626 26.9462 30.3267 26.8114 30.1499 26.5727C30.0294 26.6783 30.2899 27.1067 30.4431 27.2631L30.6726 27.345C30.558 27.6148 30.9776 27.7712 30.9776 27.9257C30.7717 27.8513 30.548 27.5879 30.3231 27.2847C30.1149 26.9719 29.9226 26.612 29.7108 26.3678C29.6912 26.5827 29.7649 26.8841 29.8877 27.2101C30.0058 27.5407 30.2253 27.865 30.418 28.17L30.3326 27.8475L30.5308 28.1682L30.484 27.7693C30.6476 28.0822 30.8222 28.3342 31.0108 28.5902C30.7835 28.2935 30.9094 28.0374 30.9836 28.2386C31.0885 28.6648 31.3158 28.5281 31.4908 28.7836C31.3994 28.6355 31.2671 28.4535 31.4267 28.518C31.6462 29.1184 31.8194 29.1926 32.0504 29.7345C32.198 29.5095 32.5416 30.2383 32.7517 30.1505L32.5944 29.9452C32.5944 29.9452 32.7148 30.0175 32.8335 30.0915C32.9539 30.1625 33.0839 30.2227 33.0839 30.2227C33.3075 30.7171 32.6026 30.0742 33.0685 30.7075C33.5817 31.212 33.7389 30.997 34.1935 31.308C34.0734 31.3139 33.9062 31.2764 33.7217 31.2024C33.5407 31.1223 33.3562 30.9892 33.1894 30.837L33.3444 31.0793C33.1794 31.046 32.713 30.6101 32.4994 30.3755C32.7439 30.5004 32.7112 30.4437 32.608 30.3285C32.5089 30.2073 32.3439 30.0193 32.3167 29.8849C32.1766 29.953 32.4193 30.1876 32.0657 29.9749C32.3244 30.2443 32.3516 30.2932 32.6585 30.6609C32.3108 30.2818 32.0795 30.1839 31.8349 30.1076C31.7162 30.0665 31.5995 30.0276 31.4808 29.9489C31.3603 29.8729 31.2399 29.7537 31.1294 29.5464C31.4381 29.8437 31.209 29.2922 31.238 29.2103C31.1057 29.0635 30.8399 28.7627 30.7117 28.6511L30.6245 28.8958C30.4204 28.7078 30.4085 28.4947 30.3713 28.2916C30.3344 28.0859 30.2821 27.8888 30.0277 27.6793C29.8739 27.6757 30.2704 28.17 30.1926 28.0859C29.6195 27.4315 29.8236 26.9641 29.6504 26.2407C29.5768 26.227 29.4426 26.2973 29.2444 26.0939C29.3939 26.1195 29.3822 25.9183 29.5808 26.1505C29.5358 25.9022 29.3536 25.6618 29.2286 25.4742C29.3358 25.9883 28.9821 25.3393 28.8753 25.2707C28.8054 25.0073 29.0267 25.3082 29.1181 25.4509C29.0753 25.2336 29.1726 24.9364 28.9472 24.8797C29.0753 24.8349 29.4895 25.3315 29.6562 25.6796L29.5868 25.4253C29.7127 25.5697 29.7067 25.6073 29.7767 25.8592C29.7867 25.5817 29.9049 25.5642 30.0158 25.5817C30.0081 25.6187 29.979 25.5762 29.9712 25.6128C30.0076 25.8204 30.1013 25.9512 30.1517 25.877C30.389 25.9727 30.1517 25.5721 30.1967 25.408C30.1499 25.3159 30.1035 25.224 30.0567 25.134C30.0567 25.134 29.8272 24.9328 29.598 24.7334C29.4521 24.5921 29.3112 24.4458 29.1745 24.2953C28.9976 23.8595 29.0636 23.6227 29.0949 23.2669L28.9258 23.2028C28.879 22.7981 28.8731 22.4167 29.1085 22.6417C29.0577 22.6632 29.0794 22.714 29.0849 22.7999C29.1085 22.8095 29.1285 22.8265 29.1413 22.8488C29.1512 22.8543 29.1609 22.8584 29.1722 22.8644C29.0558 22.4496 28.984 22.1922 28.9781 22.1666C29.3104 22.8525 29.2676 22.1666 29.5608 22.2544C29.5608 22.2544 29.5494 22.2114 29.5299 22.1464C29.5058 22.0692 29.4872 21.9905 29.4735 21.9105C29.4426 21.7362 29.4099 21.5625 29.4099 21.5625C29.3436 21.9983 29.2735 21.5798 29.2289 21.4276C29.3863 21.3763 29.19 20.8527 29.2191 20.6003L29.2499 20.62C29.3145 20.3895 29.3204 19.9866 29.2931 19.6935C29.2422 19.705 28.9935 19.3084 28.8813 19.105C28.7567 19.6093 28.7377 19.3007 28.6304 19.3317C28.6399 19.2792 28.6613 19.1832 28.6421 19.1695C28.609 19.0913 28.5681 19.265 28.514 19.2751C28.5527 19.8403 28.5467 20.4129 28.7568 20.6378C28.8636 20.4718 28.6749 20.3501 28.7508 20.1627C28.8167 20.3012 28.8404 20.4558 28.8422 20.6319C28.8476 20.8097 28.8558 21.0073 28.8636 21.2341L28.7389 21.3883L28.8345 21.8401C28.7544 21.6544 28.6226 21.7815 28.5722 21.2963C28.4518 21.3649 28.6244 21.7774 28.6013 22.0783C28.664 22.1236 28.7286 22.167 28.7935 22.209C28.6886 22.1606 28.7627 22.7958 28.5644 22.3618L28.5254 22.2484C28.4949 22.167 28.4699 22.0838 28.4518 21.9983C28.4049 21.8144 28.3604 21.6306 28.3604 21.6306L28.2536 21.8478L28.1876 21.2103L28.2844 21.3571C28.1232 20.3347 28.5917 21.0539 28.4263 20.0337C28.2399 19.705 28.2031 19.3454 28.3645 18.7272C28.3431 19.1868 28.504 18.7939 28.6013 18.9778C28.7568 18.536 28.6068 18.3582 28.5644 18.1039C28.6926 18.0084 28.7935 17.9452 28.7158 18.3463C28.9394 18.4386 28.7527 17.8048 29.0131 17.8227C29.1726 17.1751 29.0522 16.8623 28.984 16.5226C28.939 16.1924 28.9335 15.8206 29.3708 15.1246L29.4349 15.2165C29.5963 14.7295 29.7708 14.3642 29.9481 14.0125C30.1476 13.674 30.3581 13.3516 30.5716 12.9255C30.5716 12.9255 30.6081 12.8944 30.6648 12.8473C30.7254 12.8042 30.8048 12.7476 30.8844 12.6886C31.0303 12.5793 31.1894 12.4676 31.1894 12.4676C31.1217 12.6241 31.0144 13.08 31.2321 12.9858C30.8162 13.123 30.7135 13.5058 30.3949 13.76C30.4317 13.8268 30.5522 13.717 30.6199 13.68C30.5017 13.8753 30.3403 13.9164 30.2294 14.2018C30.2744 14.2095 30.5036 13.9595 30.4008 14.1862C30.4008 14.1862 30.3172 14.2567 30.2394 14.333C30.1595 14.4071 30.0818 14.483 30.0818 14.483C29.9072 15.0153 30.2957 14.8882 29.9576 15.4332C29.8817 15.2732 29.8058 14.9682 29.8858 14.7258C29.7303 14.9838 29.9849 14.3289 29.7926 14.5402C29.7962 15.0231 29.5299 15.1306 29.4599 15.7232C29.4563 15.6486 29.4254 15.6172 29.464 15.4804L29.0968 16.239C29.1881 16.1608 29.1609 16.3347 29.1359 16.5221C29.1144 16.7142 29.1158 16.925 29.2094 16.9117C29.2772 16.7023 29.3299 16.5655 29.3744 16.4581C29.4154 16.3501 29.4385 16.2743 29.4659 16.1924C29.5186 16.0319 29.5808 15.8559 29.8004 15.4082C29.738 15.6875 29.7826 16.0922 29.8822 16.3016C29.8722 16.3071 29.8622 16.3191 29.8486 16.3447C29.9635 16.54 30.0585 16.4151 30.3462 16.5185C30.2957 16.0475 30.5289 15.8302 30.6453 15.3322C30.5403 15.1758 30.3112 15.5061 30.2667 15.764C30.2667 15.764 30.2704 15.7347 30.2745 15.6916C30.2781 15.6464 30.2862 15.5896 30.2995 15.533L30.3462 15.3066L30.3772 15.4178C30.3772 15.4178 30.5135 15.1657 30.6494 14.9115C30.7171 14.7862 30.7853 14.6595 30.8381 14.5658C30.8867 14.4698 30.9307 14.4131 30.9307 14.4131C30.8303 14.6046 30.8944 14.7222 30.908 14.8548C30.9826 14.7231 31.0808 14.6065 31.1975 14.511C31.0421 14.4597 30.9526 14.3879 31.0303 14.2663C31.2362 13.9617 31.4226 13.7403 31.5917 13.584C31.7362 13.4545 31.9057 13.3562 32.0893 13.295C32.1026 13.2712 32.1184 13.2437 32.1303 13.2204C31.9257 13.2223 32.198 12.6324 32.2116 12.3424C32.3339 12.4599 32.5416 12.1257 32.7481 12.0283C32.6799 11.8146 32.3826 11.7424 32.0835 11.8384C31.8754 12.3369 32.029 12.1704 32.0776 12.5185L31.7357 13.2597L31.7158 13.0251C31.4112 13.3005 31.3899 13.7486 31.2362 13.6133C31.2362 13.4884 31.2926 13.3535 31.3663 13.2323C31.4403 13.1112 31.5122 12.9899 31.5217 12.8628L31.3003 13.0366C31.4226 12.5363 31.5976 12.9548 31.8325 12.4091C31.5721 12.4736 31.8521 12.3584 31.9162 12.0886C31.6966 12.1704 31.3389 12.941 31.209 12.6264C31.2499 12.464 31.4731 12.3054 31.6867 12.1315C31.899 11.9537 32.1317 11.7895 32.1553 11.5375L32.1671 11.5742C32.3807 11.3651 32.4935 11.195 32.5631 11.0446C32.6353 10.896 32.6744 10.7785 32.7185 10.6614C32.9735 10.5557 33.1463 10.2178 33.3502 10.0202L33.3989 10.0907C33.3989 10.0907 33.463 10.0142 33.5389 9.94986C33.6125 9.88348 33.6848 9.81675 33.6848 9.81675C33.6261 10.0459 33.323 10.1025 33.0857 10.3527L33.2221 10.4428C32.8121 10.5635 32.8021 10.9412 32.6971 11.2477C32.9053 10.8433 33.6108 10.4542 33.4861 10.1473C33.4844 10.1433 33.7971 10.1025 33.7971 10.1025L33.863 9.97913C34.0984 9.95571 34.0421 10.2196 33.7739 10.4876C33.7002 10.4995 33.6635 10.5072 33.6571 10.4679C33.5698 10.6417 33.533 10.8411 33.1971 11.0995L33.3075 10.8864C32.8957 11.2247 32.6234 11.6349 32.6194 11.8719C32.7557 11.7405 32.8917 11.6116 33.0257 11.4822C33.1675 11.3615 33.3075 11.2422 33.4458 11.1228C33.7253 10.8864 33.9799 10.6321 34.2675 10.4268C34.2129 10.0202 34.3007 9.70331 34.1993 9.36533C34.2925 9.27753 34.3917 9.18153 34.5026 9.09186C34.6175 9.00733 34.7375 8.92316 34.8603 8.84496C35.1052 8.6909 35.3575 8.56002 35.573 8.50113L35.5716 8.57933C35.7675 8.49738 35.9402 8.40736 36.0689 8.29755C36.3079 8.27835 36.0107 8.5208 36.1698 8.49516L36.7625 8.08496C36.7821 8.24136 36.2475 8.49926 36.0007 8.63459C36.0434 8.599 36.1271 8.5304 36.088 8.52665C35.7502 8.60075 35.3693 9.16011 35.1321 9.04258C35.0139 9.16011 35.3302 8.73387 34.8543 9.01144C34.4907 9.1326 34.5066 9.37131 34.5143 9.44775C34.5512 9.50991 35.0525 9.23234 34.9416 9.42386C35.1729 9.2698 35.212 9.11703 35.5598 9.00183C35.3266 9.1559 35.1011 9.49621 34.9048 9.4632C34.5434 9.89905 34.8543 10.1903 35.0566 10.0573C34.9284 9.97912 35.7907 9.41977 35.1089 9.64665C35.2003 9.49621 35.3693 9.34344 35.5558 9.19348C35.7384 9.0448 35.9239 8.8994 36.1116 8.75716L36.1097 8.79462L36.5602 8.5304C36.5139 8.6031 36.3875 8.70635 36.4207 8.78455L36.9743 8.26465C36.8207 8.42293 36.8889 8.41918 37.017 8.37575C37.147 8.33513 37.3494 8.27238 37.4466 8.27063C37.4698 8.12195 37.707 7.93452 37.4229 7.95969C37.0988 7.97936 37.2793 8.08858 37.023 8.19429L37.3203 7.86404L37.3594 7.86955L37.528 7.62769C38.0488 7.44927 37.4348 8.07723 38.0375 7.682L37.8797 7.49645C38.6766 7.26407 39.7434 7.28514 40.2892 7.11914C40.1516 7.27145 40.1206 7.48861 40.3457 7.5805C40.1065 7.58601 39.627 7.63728 39.3042 7.76207C39.2675 7.75025 39.3566 7.65871 39.5024 7.56271C39.6688 7.46262 39.8565 7.40408 40.0502 7.39308C39.9297 7.22298 39.6988 7.31253 39.4947 7.40865C39.2906 7.51787 39.1098 7.62171 39.0419 7.44154C38.5543 7.4982 38.4007 7.63494 38.2684 7.75248C38.1379 7.87961 38.0292 7.99481 37.6079 8.03004C37.6561 8.19429 37.4193 8.18832 37.4329 8.34285C37.5938 8.43065 37.8411 8.33735 38.117 8.20975C38.3871 8.07079 38.7097 7.96332 38.972 7.93815C38.9252 7.96379 38.8338 8.01272 38.822 8.04972C39.1916 8.00441 39.3275 7.93218 39.5648 7.80551L39.5297 7.79368C39.9415 7.54538 39.8288 7.87002 40.0992 7.90116C40.196 7.85995 40.5615 7.85398 40.4879 7.73878C40.4879 7.73878 40.6097 7.76021 40.7324 7.78409C40.8547 7.80551 40.9752 7.83256 40.9752 7.83256L40.9347 7.64501C41.2029 7.61937 41.2706 7.74053 41.5055 7.61387L41.5079 7.4433L41.1679 7.43195C41.082 7.43007 40.9965 7.42597 40.9325 7.4241C40.8684 7.42188 40.8257 7.42597 40.8257 7.42597C41.1638 7.34004 40.9051 7.25587 41.2861 7.19547C40.872 7.40443 41.5951 7.27367 41.6438 7.42785L41.9197 7.3185L41.8496 7.36744C42.0692 7.44927 42.1083 7.28104 42.3646 7.31253C42.0651 7.21057 41.8574 7.11504 41.4747 7.25224C41.7487 7.14653 42.316 6.99973 42.456 7.01764C42.7592 6.96086 42.9651 7.09947 43.241 7.13471C42.7028 7.1758 43.3906 7.65648 42.351 7.48451C42.3706 7.45337 42.456 7.46484 42.4874 7.48685C42.3492 7.24803 41.8556 7.50605 41.6397 7.60205C41.702 7.72321 41.4729 7.76617 41.8674 7.81511C41.7328 7.75025 42.1956 7.4982 42.5747 7.63728L42.5029 7.90116L43.0387 7.95969L42.9883 7.96929C43.177 8.15309 43.5655 7.95372 43.9192 8.12382C44.0574 8.09678 44.3778 8.14114 44.6146 8.14946C44.8519 8.15309 45.0073 8.14946 44.8168 7.95969C45.1105 8.20015 45.4428 8.06891 45.8155 8.12932L45.3919 7.90654C45.9792 7.86404 45.7887 7.93452 46.3114 7.76805C46.3328 7.85398 46.4082 7.94412 46.2996 7.98709C46.6491 8.1257 47.0751 8.29205 47.4636 8.44669C47.8422 8.62042 48.1982 8.75353 48.4486 8.75529C48.6913 8.87282 48.775 9.03883 48.899 9.18341C49.0218 9.33384 49.1696 9.48065 49.5173 9.62148C49.5931 9.64712 49.6027 9.57851 49.64 9.54515C49.6768 9.50991 49.7427 9.50804 49.9195 9.69183C49.9331 9.72707 49.4277 9.57067 49.8768 9.88172C50.3063 9.95758 50.5514 10.5014 51.0254 10.7204C51.175 10.9568 51.5345 11.2499 51.35 11.3007C51.0659 10.9901 50.6054 10.6125 50.489 10.6184C50.5977 10.5777 50.3104 10.3646 50.6054 10.4935C50.1723 10.0106 50.215 10.3234 49.8086 9.91462C49.7409 9.94611 49.9372 10.2352 50.0691 10.2603C49.9409 10.4328 49.1172 9.69371 49.3695 10.2023C49.8204 10.5695 50.2577 10.2997 50.5123 10.8141C50.2755 10.7771 50.0786 10.5031 49.735 10.5306L50.0187 10.8452C50.0187 10.8452 50.3604 10.9001 50.3568 10.9074L50.3218 10.9215C50.7281 11.5745 50.9863 11.1973 51.5441 11.6016C51.385 11.201 51.8822 11.3986 51.7404 11.1132C52.0822 11.4379 52.2904 11.7191 52.1273 11.8659C51.4158 11.3537 51.9232 11.9794 51.2313 11.5663C51.2622 11.7131 50.8855 11.6642 51.1731 12.0104C51.6277 12.2783 51.2022 11.7681 51.5982 12.0964C51.604 12.1315 51.6099 12.1687 51.5754 12.1787C51.8181 12.2761 51.7267 12.4091 52.0145 12.5386L51.9344 12.5166C52.0572 12.8687 52.2904 12.726 52.3603 13.058C52.4185 12.861 52.5894 13.1404 52.7881 13.2364C52.65 12.9529 52.7472 12.6612 52.339 12.1764C52.1891 12.2039 52.164 12.2843 51.9463 12.1375L52.2258 12.4266C52.1522 12.3758 52.0822 12.3484 52.0109 12.3054L51.8027 11.9751C52.2008 12.2784 52.1545 12.0182 52.3994 12.0886C52.6517 12.476 52.6612 12.3661 52.8054 12.6204C52.6381 12.716 53.0813 13.5117 53.2172 14.0281C53.1822 13.9557 53.1259 13.8693 53.1004 13.8208C52.8072 13.5684 53.099 14.1241 53.0599 14.1606L53.2795 14.3426C53.2427 14.3056 53.1667 14.2685 53.2036 14.3796C53.4231 14.671 53.5726 14.5658 53.7649 14.8822C53.6836 14.9527 53.4076 14.7492 53.4581 14.9783C53.4113 15.0916 53.2967 15.414 53.5808 15.7969C53.635 15.8087 53.7013 15.9144 53.7631 16.0415C53.7518 16.026 53.7376 16.0044 53.728 15.9986V16.3328C53.4736 16.1512 53.6249 15.7954 53.3377 15.6331L53.1745 15.6839C53.0872 15.5018 52.9027 15.2851 52.7699 15.2147C52.8753 15.5018 52.9435 15.5389 53.124 15.8326C53.0463 15.9185 52.8713 15.7364 52.8463 15.7113L52.9549 15.715C52.9313 15.5018 52.8286 15.3825 52.7099 15.2595C52.5972 15.1347 52.4518 15.0172 52.3331 14.7981C52.2999 14.7295 52.335 14.7629 52.3717 14.761C52.0222 14.505 52.0181 14.0317 51.5944 13.8537L51.7422 13.9027C51.5167 13.7367 51.1032 13.4024 50.6291 13.1541L50.5763 13.1952C50.5841 13.2634 50.4599 13.123 50.4131 13.0306C50.3004 12.9666 50.1918 12.9016 50.0886 12.8431C49.9799 12.7905 49.8786 12.7416 49.7872 12.6964C49.805 12.7672 49.8399 12.8454 49.8981 12.9117C50.0127 12.904 50.26 13.2868 50.3509 13.1184C50.4113 13.3475 50.755 13.4925 50.8041 13.6544C50.7572 13.5117 50.8213 13.5195 50.9086 13.5647C50.994 13.6119 51.1032 13.6956 51.1554 13.686C51.1245 13.8323 51.4158 14.0202 51.2722 14.0811C51.2741 14.1492 51.2682 13.9087 51.1245 13.8674C50.8386 13.7175 51.3481 14.3742 51.0231 14.1606C51.4045 14.4561 51.6568 15.0172 52.0317 15.3574L51.9445 15.0954C52.0531 15.281 52.2904 15.7347 52.244 15.7991C52.1564 15.6642 52.0863 15.4905 51.9599 15.3281C51.8199 15.3944 52.174 15.7657 52.094 15.8326L52.6049 16.2486L52.5 16.0082C52.6827 16.1083 52.7568 16.679 52.8695 17.0659C52.7199 16.9936 52.6672 16.8527 52.6226 16.6826C52.5777 16.5125 52.5467 16.3076 52.4032 16.1394C52.1913 15.9007 52.2809 16.3991 52.1058 16.1646C52.0886 16.2546 52.1759 16.4151 52.2649 16.4773V16.5989C51.9872 16.4426 51.7694 15.93 51.4604 15.682C51.4936 15.6995 51.5264 15.7131 51.5517 15.7113C51.4899 15.4236 51.3268 15.1813 51.1399 14.9723C51.1595 15.1324 51.2272 15.158 51.2918 15.2165C51.2527 15.2518 51.0991 15.0423 50.9999 14.9897C51.0777 15.2398 50.9205 15.0976 50.9727 15.2518C50.8427 15.142 50.8018 15.0135 50.699 14.8433C50.7026 14.7162 50.8409 14.8488 50.9127 14.773C50.7377 14.644 50.8817 14.4189 50.6018 14.2448C50.8095 14.5969 50.3568 14.296 50.2227 14.2333L50.2559 14.2918C50.0886 14.2644 50.0209 14.1881 50.044 14.0555C50.1978 14.1373 50.2541 14.296 50.3259 14.1766C50.2572 14.0833 50.1709 14.0056 50.0714 13.9475L50.215 13.9713L49.8341 13.5881C49.6964 13.5995 49.4923 13.6037 49.3291 13.6644C49.3172 13.4998 49.1209 13.449 49.0123 13.3965L49.0841 13.4001C48.9755 13.1815 48.5554 12.8802 48.4505 12.9469C48.4314 12.9058 48.5032 12.898 48.6081 12.8999C48.7109 12.9058 48.8391 12.9309 48.9441 12.9369C49.1522 12.9548 49.2686 12.8898 48.7809 12.5345C48.4137 12.2606 48.3651 12.6108 48.1009 12.5459C48.1009 12.5459 48.13 12.5285 48.1223 12.4974C47.9805 12.3644 47.9004 12.4426 47.7432 12.3995C47.815 12.4974 47.9395 12.6063 48.0096 12.5989C47.9495 12.6341 47.8713 12.5734 47.7883 12.5011C47.7023 12.4325 47.6014 12.3662 47.5119 12.3721C47.7823 12.3016 47.2382 12.1161 47.4187 12.1042C47.2864 11.9537 47.1195 11.8422 46.9428 11.8033C46.7892 11.7685 46.6295 11.7644 46.4742 11.7913C46.35 11.4511 46.0646 11.6157 45.7169 11.377C45.7732 11.4063 45.8974 11.4099 45.9709 11.4667C46.2568 11.4003 45.5923 11.2403 45.9945 11.2302C45.911 11.2266 45.9573 11.3066 46.0432 11.3125C46.1846 11.3377 46.3305 11.3418 46.3287 11.2576C46.3287 11.2576 46.2668 11.1813 46.1946 11.1228L46.0546 10.9975L46.1846 11.0035L45.7419 10.6321C45.7164 10.6577 45.7537 10.7121 45.771 10.7414C45.6292 10.6691 45.4796 10.5933 45.3201 10.5461C45.1592 10.5036 44.9973 10.4652 44.8347 10.4309C44.6733 10.3957 44.5137 10.3623 44.3623 10.3289C44.215 10.3138 44.0683 10.2923 43.9228 10.2649C43.8337 10.4876 43.5015 10.4583 43.1265 10.462C42.7514 10.4775 42.3338 10.4386 42.1215 10.5933C42.2342 10.4561 42.3024 10.2274 42.2265 10.1355C42.3256 10.1181 42.5356 9.94986 42.7647 9.99879C42.8001 10.0732 43.0737 10.1684 42.8873 10.243C43.5151 10.2215 42.8174 10.0422 43.012 9.88348C42.6542 9.89308 42.3706 9.93604 42.1255 10.0339C41.8806 10.1318 41.6751 10.2352 41.4628 10.2978L41.4474 10.2452C41.4474 10.2452 41.1288 10.3546 41.1306 10.3664C41.2651 10.3623 41.3347 10.4405 41.3252 10.4935C41.3174 10.5521 41.2337 10.5873 41.0629 10.5754L41.1015 10.5557C40.8974 10.4798 40.5188 10.6655 40.221 10.6929C40.2193 10.6869 40.056 10.8864 40.056 10.8864C39.7689 10.9449 39.6869 10.6811 39.5493 10.548C39.067 10.6339 38.8824 10.9742 38.6184 11.2069C38.5288 11.1813 38.3056 11.2051 38.1575 11.2403C38.0084 11.2696 37.9129 11.2673 38.0547 11.1168C37.8797 11.2614 37.8821 11.4667 37.8293 11.6373C37.802 11.7209 37.7634 11.795 37.6797 11.8504C37.6389 11.8773 37.5843 11.8969 37.5161 11.9125C37.437 11.9355 37.3556 11.9501 37.2734 11.9555L37.3884 11.7544C37.2425 11.8522 37.0888 11.9693 36.9334 12.0886C36.7798 12.2097 36.6207 12.3292 36.4903 12.4659C36.2244 12.732 35.9734 12.9309 35.8202 12.9959C35.7539 12.5029 34.8893 13.2616 34.5126 13.0855C34.6034 13.123 34.4407 13.3516 34.4503 13.4143C34.3743 13.4257 34.273 13.471 34.2634 13.6054C34.5143 13.449 34.4461 14.0334 34.6834 13.5255C34.7084 13.9247 34.6271 14.2877 34.2949 14.7437L34.1644 14.6339L34.4735 14.3014C34.3452 14.2548 34.5066 14.0847 34.5298 13.9773C34.3648 14.1181 34.2753 14.1725 34.2189 14.1843C34.1607 14.1941 34.1335 14.1533 34.108 14.1181C34.0576 14.0435 34.0185 13.9809 33.7562 14.3504C33.7911 14.4853 33.7894 14.4131 33.6848 14.6262C33.7448 14.5343 33.6635 14.4501 33.5543 14.5928L33.5621 14.8059C33.368 14.8644 33.3853 14.7199 33.4434 14.5928C33.498 14.462 33.5639 14.3312 33.4007 14.3838C33.5039 14.0185 33.8302 13.4651 33.6008 13.4239C33.1635 13.8561 33.5912 14.1063 33.1444 14.542L33.0335 14.548C32.9735 14.7706 33.0803 14.8804 33.0953 15.029C33.0453 15.0112 32.9853 15.0368 32.8993 15.1479C32.9017 15.361 32.8702 15.5138 32.8685 15.6774C32.8666 15.8403 32.8685 15.9986 32.9053 16.1961C32.9575 15.9847 33.0121 15.8403 33.0685 15.7305C33.1308 15.6253 33.2026 15.5586 33.2684 15.49C33.4067 15.355 33.5312 15.2147 33.7062 14.8022C33.6766 14.9508 33.4144 15.5138 33.5953 15.6582L33.4534 15.5668C33.3716 15.8458 33.3426 16.1394 33.1408 16.4283L33.1463 16.1938C33.0998 16.4307 32.9558 16.5751 32.8394 16.7238C32.7381 16.8783 32.6566 17.0347 32.7267 17.2556C32.7848 17.1381 32.8158 17.0384 32.8199 16.9524C32.8103 17.2067 32.6857 17.4766 32.5771 17.717L32.7166 18.3074C32.6371 18.2817 32.5476 18.6065 32.4584 18.419C32.4093 18.4908 32.3762 18.5731 32.3612 18.6591C32.3576 18.7354 32.3671 18.8035 32.3849 18.8685C32.4176 18.9975 32.4758 19.1086 32.4799 19.2206C32.2426 19.58 32.4508 18.8763 32.2271 18.7922C32.1499 19.0537 32.1043 19.3231 32.0912 19.5956C32.0948 19.8518 32.1475 20.0826 32.2135 20.2386C32.2521 20.1293 32.2858 20.0785 32.3263 20.0864C32.2717 20.1001 32.2758 20.3191 32.2662 20.4403L32.3707 20.5262C32.2858 20.7256 32.2212 20.7005 32.1494 20.5244C32.1043 20.7219 32.3476 20.9483 32.194 21.1537C32.1253 20.9877 32.0953 20.808 32.1067 20.6282C32.1184 20.4581 32.1339 20.3072 32.0967 20.2171C32.1322 20.5715 32.0349 20.7435 31.9748 20.9483C31.9085 21.1518 31.8349 21.3905 31.9394 21.836C31.889 21.8538 31.7631 21.7088 31.7903 21.8849C31.893 22.286 32.0308 21.9631 32.1708 22.0728C32.0485 21.7792 32.1126 21.6251 32.2448 21.439L32.3375 21.5135C32.2953 21.5291 32.293 21.7189 32.2603 21.7792L32.4489 21.8084C32.2467 21.8031 32.1417 22.1255 32.2521 22.3541C32.3594 22.092 32.3635 22.1584 32.5789 22.0627C32.8471 22.3486 32.4135 22.4674 32.7148 22.7839C32.6371 22.7743 32.538 22.4638 32.538 22.7492C32.5885 22.9755 32.7326 22.9115 32.8199 23.0464C32.6139 22.9188 32.5049 22.9915 32.2603 22.8452C32.163 22.4304 32.2331 22.6769 32.0967 22.2777L32.0094 22.6531C31.9281 22.2956 31.7803 22.4185 31.7121 22.3988C31.6362 23.0697 32.039 22.8274 32.0912 23.2279C32.2503 23.388 32.0213 22.8567 32.2135 23.1223C32.2817 23.49 32.3416 23.1791 32.513 23.5604L32.4217 23.5152C32.3594 23.6661 32.4994 23.7561 32.5707 23.8847C32.6721 24.0159 33.0667 23.5431 33.2903 24.1234C33.2357 24.1114 33.2044 24.1114 33.1871 24.1179C33.1871 24.1179 32.8062 24.0977 32.4153 24.0571C32.2348 24.0382 32.0549 24.0164 31.8754 23.9907C31.7276 23.9693 31.6344 23.9514 31.6344 23.9514C31.7471 24.2971 31.883 24.6648 31.9999 25.0599C32.163 25.4308 32.2953 25.8401 32.4662 26.2328C32.4003 26.3851 32.2662 26.2873 32.1517 26.1505C32.0426 26.012 31.9412 25.8437 31.8971 25.8962L31.7744 25.5094C31.8912 25.4819 32.1671 26.2443 32.1962 25.83C32.0117 25.535 31.9067 25.3059 31.8034 25.0814C31.704 24.818 31.5604 24.5742 31.378 24.3602C31.2826 24.5007 31.3703 24.7078 31.4748 24.9364C31.5299 25.0498 31.5781 25.1733 31.6286 25.2909C31.6813 25.408 31.7158 25.5272 31.7158 25.6503C31.6558 25.4742 31.5526 25.3512 31.4617 25.224C31.6017 25.615 31.7531 26.0394 31.9394 26.4794L32.0521 26.5379C31.9044 26.2544 31.8539 26.0312 31.8444 26.0061C31.9922 26.4067 32.338 26.6179 32.5144 26.5398L32.4835 26.4734L32.6139 26.5667L32.7343 26.8251ZM53.2699 23.4351C53.2813 23.4639 53.299 23.4891 53.3222 23.5097C53.2986 23.4877 53.2754 23.5001 53.2699 23.4351ZM30.3913 19.0775C30.3639 19.2206 30.3286 19.361 30.3035 19.5037L30.2508 19.9341C30.2199 20.2212 30.1731 20.5065 30.1653 20.786C30.5985 19.7736 30.939 19.1712 30.8553 20.7494L30.8904 20.8527C30.9194 20.6456 30.9662 20.2916 30.9467 19.9533C30.8867 19.8146 30.7213 19.5097 30.6199 19.2339C30.5076 18.9582 30.4026 18.7061 30.3794 18.708C30.253 18.7922 30.3522 18.9582 30.2899 19.136L30.3913 19.0775ZM31.1117 18.7826C31.2013 18.4853 31.104 18.5384 31.0339 18.4757C31.0285 18.5868 31.0203 18.6965 31.0144 18.8059C31.0399 18.767 31.0708 18.7528 31.1117 18.7826ZM30.9526 18.4794C30.9449 18.5146 30.9367 18.5439 30.9235 18.5576L30.9526 18.4794ZM31.2926 24.5496C31.2867 24.5381 31.2826 24.5322 31.2771 24.5203C31.2967 24.5926 31.3158 24.6648 31.3372 24.7411C31.3372 24.7078 31.3276 24.6511 31.2926 24.5496ZM31.2826 23.8828L31.1235 23.8518C31.1353 23.9199 31.1486 23.9907 31.1603 24.0629C31.2166 24.0195 31.2671 23.9789 31.2826 23.8828ZM31.3644 21.836C31.1835 21.7302 31.1567 21.3118 30.9526 21.2963C30.8999 21.2707 30.8844 21.3631 30.8726 21.4646C30.8726 21.5781 30.8726 21.6992 30.8749 21.8281C30.9058 21.83 30.9307 21.8537 30.9645 21.8926C30.9776 21.7637 31.028 21.6772 31.1526 21.717C30.9058 22.0627 31.3799 21.9787 31.3567 22.3206C31.5122 22.4048 31.4381 21.932 31.3644 21.836ZM49.4786 11.7388C49.4746 11.7585 49.4746 11.8151 49.4768 11.8873L49.2182 11.8187C48.8978 11.5334 48.7927 11.0505 48.3086 11.0679C48.1863 10.9193 48.1686 10.7533 48.1419 10.6087C48.2177 10.6632 48.2855 10.7181 48.3382 10.7689C48.9245 10.9001 48.9832 11.0935 49.0141 11.2518C49.045 11.414 49.0391 11.5687 49.4786 11.7388ZM45.0483 9.15039C45.0751 9.15133 45.1015 9.14079 45.1201 9.12077C44.0455 9.23047 43.2505 9.27718 42.7183 9.24604C42.8155 9.40244 43.2742 9.52548 43.4837 9.61738C43.4837 9.61363 43.276 9.75997 43.276 9.76594L43.1674 9.62921L42.8233 9.76594C42.9087 9.88348 43.177 9.87388 43.3442 9.96718C43.3597 9.93604 43.9465 9.83044 44.1269 9.75224L43.6842 9.56482C43.8005 9.63928 44.4246 9.67041 44.6709 9.69781C44.6828 9.65847 44.5932 9.57255 44.4846 9.53555C44.3755 9.49844 44.2533 9.49247 44.2105 9.57852C44.1797 9.44728 44.6751 9.52174 44.3874 9.34204C44.7878 9.2698 45.3473 9.55698 45.5982 9.67639L45.5823 9.88945C45.8392 10.0674 45.8528 9.71747 46.1519 9.95758C45.7241 9.84414 46.1442 10.1999 45.8137 10.0943C45.8914 10.2078 45.746 10.3056 46.0682 10.4071C46.4314 10.253 46.3441 10.6773 46.6764 10.5717C46.8009 10.7281 46.4396 10.6417 46.7368 10.8279C47.1564 10.8685 47.1855 10.767 47.2983 10.5969C46.9719 10.376 46.7969 10.6458 46.5386 10.4679C46.5386 10.4679 46.7114 10.4542 46.8882 10.4441L47.2459 10.4249C47.1623 10.3289 47.0846 10.286 47.0127 10.2668C47.1369 10.3033 47.2578 10.3056 47.3741 10.2841C47.4405 10.2723 47.5005 10.2625 47.5551 10.2567C47.2205 10.0962 46.9273 9.94798 46.9096 9.84414L46.9955 9.77601C46.9137 9.62698 46.6764 9.62511 46.5601 9.65672C46.2396 9.54878 45.8855 9.56481 45.8564 9.42023L46.0042 9.37915C45.8059 9.3164 45.6933 9.29673 45.5651 9.27343C45.3919 9.23644 45.2196 9.19523 45.0483 9.15039ZM32.7808 13.2264C33.0008 13.2364 33.2007 13.2305 33.4553 13.1304C33.602 13.0668 33.7384 12.9812 33.8593 12.8766C34.0071 12.7576 34.1548 12.5811 34.3607 12.3877L34.3121 12.4659C34.5998 12.3566 34.7494 12.1179 34.9225 11.8636C35.1011 11.6231 35.3207 11.3848 35.6684 11.2755C35.4798 11.586 35.4838 11.5687 35.3848 12.0296L35.6025 11.7388C35.6412 11.9537 35.8589 11.6642 36.0689 11.5174L36.022 11.8444C35.8648 11.8791 35.5343 12.0964 35.577 12.1315C35.6043 12.0964 35.4566 12.1161 35.2702 12.1764C35.0971 12.2527 34.887 12.3762 34.7861 12.513C34.9189 12.6049 35.3866 12.0886 35.3266 12.4952C35.453 12.2253 35.5925 12.3465 35.7793 12.1298C35.6298 12.3762 35.857 12.341 35.7716 12.5482L36.0961 12.2373C36.1348 12.2743 35.6493 12.7178 36.057 12.6538C36.1484 12.4837 36.5797 12.2862 36.4903 12.1394L36.5275 12.1764C36.8265 12.0356 36.5216 11.8988 36.9221 11.7681C36.883 11.6916 36.7838 11.682 36.667 11.7758C36.5821 11.8755 36.6224 11.9751 36.4266 12.1394C36.3429 12.1197 36.4066 12.0749 36.4593 12.0296C36.5139 11.989 36.5566 11.94 36.4185 11.8928C36.2766 11.8463 35.9271 12.3817 35.9289 12.0612L36.2244 11.8851C36.1312 11.7347 36.3489 11.6075 36.2688 11.4982C36.4207 11.3317 36.6906 11.3926 36.8034 11.1503C36.8284 11.0076 36.5875 10.9119 36.9493 10.8004C37.332 10.9037 38.043 10.4698 38.3402 10.3546L38.5638 10.157C38.5052 10.0632 38.0683 10.3503 38.1888 10.161L38.587 9.97128L38.5774 10.0459C38.7193 10.0125 38.8338 9.88535 38.9506 9.81488C38.8533 9.96765 38.5461 10.0377 38.6606 10.1826C38.8629 10.1492 38.9079 10.1881 39.077 10.1104C39.0419 10.1318 39.0125 10.157 39.0243 10.1807C39.4365 10.1529 39.3507 9.89132 39.4384 9.8089C39.7897 9.48064 38.9739 9.70928 38.9715 9.51998C38.9715 9.51998 40.1711 9.09924 40.1807 9.13623C40.0834 9.20893 39.9878 9.28304 40.0407 9.34801C40.3574 9.38091 40.0738 9.48287 40.4933 9.40842C40.4602 9.29135 40.5865 9.23234 40.7615 9.182C40.8488 9.15636 40.9461 9.12897 41.0393 9.10158C41.1347 9.07594 41.2256 9.0544 41.2997 9.01553C41.4514 9.10743 41.4805 9.12487 41.1697 9.14454C41.2201 9.2986 41.6283 9.21864 41.7756 9.2245C41.8592 9.18153 42.0051 9.1504 42.0983 9.11118C41.9719 9.0407 42.0224 8.93323 42.2983 8.861L42.3138 8.82986C42.0888 8.80797 41.7974 8.77683 41.5256 8.75904C41.2533 8.74534 41.0007 8.74943 40.8706 8.861L40.9425 8.77085C40.3924 8.72426 39.8524 9.20483 39.5606 8.99774C39.5565 8.87657 39.452 8.99773 39.4206 8.82939L39.0707 9.05627L39.1311 8.96063C39.1311 8.96063 38.9715 9.01143 38.8106 9.064C38.6492 9.1093 38.4956 9.18563 38.4956 9.18563L38.5016 9.14817C38.3015 9.35023 38.107 9.55744 37.9184 9.77004C37.9457 9.83864 37.9729 9.85421 37.8975 9.93979C37.8329 9.99458 37.7593 10.0372 37.6797 10.0651C37.5302 10.114 37.3902 10.0632 37.1956 10.1104L37.4639 9.96952C37.532 9.93428 37.5979 9.89905 37.6489 9.87388C37.6992 9.84601 37.7338 9.83279 37.7338 9.83279C37.7321 9.69921 37.6329 9.58811 37.322 9.64478C37.4329 9.58624 37.4424 9.4728 37.2948 9.52724C37.2929 9.56481 36.9588 9.77964 37.1357 9.80527C36.8811 9.95571 36.4943 10.0477 36.1116 10.243C35.9175 10.3349 35.7153 10.4369 35.5248 10.5576C35.3371 10.6916 35.1693 10.8526 35.0271 11.035C35.4625 10.5264 34.5066 11.2165 35.058 10.7359C34.7939 10.8082 34.7339 10.9157 34.6912 11.0368C34.6485 11.1621 34.6075 11.2888 34.413 11.4552C34.3335 11.4279 34.623 11.2732 34.6347 11.0971C34.2675 11.33 34.0653 11.6582 33.8557 11.9537C33.6475 12.251 33.498 12.5871 33.1948 12.8646L33.0531 12.7883C32.9575 12.9136 32.8685 13.0659 32.7808 13.2264ZM32.0366 14.6751C31.9748 14.8196 31.8985 14.9582 31.8444 15.1109C31.8521 15.0971 31.8599 15.0858 31.8676 15.0721L31.7785 15.549C31.9572 15.318 32.1863 15.238 32.0893 15.6231C32.0466 15.5646 31.9257 15.6331 31.9512 15.4922C31.7548 15.6857 31.4167 16.1783 31.7008 16.1353C31.7162 15.5879 32.0249 16.155 32.0444 15.7328C32.0953 15.989 31.9376 16.143 31.9221 16.3484C31.8812 16.1083 31.6326 16.2761 31.4712 16.5537C31.4594 16.6963 31.2981 17.0325 31.2807 17.2652C31.4462 17.2341 31.4576 17.4394 31.6171 17.1107C31.6117 17.1938 31.5957 17.2762 31.5685 17.3553C31.5471 17.449 31.5103 17.5505 31.4462 17.6525C31.444 17.5565 31.4676 17.3965 31.4149 17.3924C31.2517 17.4998 31.213 17.674 31.1331 17.7541L31.0981 17.9864C31.1148 17.9672 31.1362 17.9526 31.1603 17.9439L31.2204 18.2215C31.2404 17.8753 31.3235 18.0847 31.4054 18.108C31.244 18.061 31.3294 18.3148 31.3062 18.4263L31.543 18.2232C31.5721 18.2918 31.5139 18.3856 31.4731 18.4616C31.4381 18.5384 31.4207 18.5964 31.5122 18.5827C31.6908 18.0884 31.724 17.8967 31.7839 17.4234L31.6035 17.5702C31.658 17.0229 31.934 17.3279 32.1203 16.7686C32.0657 16.4815 32.468 15.9519 32.2426 15.8283C32.2834 15.93 32.5984 15.5896 32.5984 15.3574C32.513 15.0524 32.8526 14.4286 32.6525 14.5539C32.5512 14.7162 32.5304 14.9993 32.3203 15.0565L32.4722 14.7121L32.2348 14.8589C32.3399 14.773 32.2271 14.7181 32.0366 14.6751ZM29.2367 23.3217V23.3396L29.2349 23.3195L29.2367 23.3217Z" fill="#DC2626"/>
</g>
<mask id="mask2_7066_32" style="mask-type:luminance" maskUnits="userSpaceOnUse" x="28" y="7" width="26" height="28">
<path d="M28.2665 7.06024H53.6333V34.7369H28.2665V7.06024Z" fill="white"/>
</mask>
<g mask="url(#mask2_7066_32)">
<path d="M53.2661 15.9108C53.3747 15.9848 53.4507 16.2588 53.5497 16.1587C53.4879 16.1884 53.4388 16.0709 53.3961 15.9752C53.3479 15.8811 53.3012 15.807 53.2661 15.9108ZM53.2661 16.2702C53.3029 16.2762 53.3479 16.2428 53.3942 16.3603L53.2447 16.0517L53.2661 16.2702ZM52.5084 16.9173C52.6598 17.0348 52.7488 17.1149 52.8288 17.3596C52.5452 17.5506 52.5957 16.9937 52.2657 16.9937C52.3274 17.2128 52.4402 17.3298 52.5589 17.4395C52.6675 17.5506 52.7725 17.6581 52.8348 17.8401C52.8734 17.7327 52.8834 17.4748 52.8093 17.2635C52.7375 17.054 52.6288 16.8803 52.5079 16.9173H52.5084ZM52.0456 16.8784L52.2011 17.0852L52.2106 17.0564L52.0553 16.8469L52.0456 16.8784ZM50.7885 10.302C50.8335 10.2023 50.6098 10.163 50.5107 10.12C50.5748 10.1767 50.6525 10.2705 50.7885 10.302ZM51.9347 30.1781C51.9347 30.1781 52.032 30.0606 52.1798 29.885C52.3234 29.7066 52.5256 29.4803 52.7048 29.2361C52.9343 28.9027 53.1607 28.568 53.3847 28.2309C53.1925 28.52 52.9998 28.7938 52.7802 29.1107C52.6753 29.2726 52.547 29.429 52.4034 29.6014C52.2616 29.777 52.108 29.9668 51.9347 30.1781ZM43.4413 7.95978C43.7503 7.93461 43.9799 7.91447 44.2131 7.88157C44.4463 7.85816 44.6849 7.82304 45.0017 7.87198C44.609 7.68034 44.3118 7.7329 44.0458 7.76989C43.7753 7.8111 43.5326 7.85044 43.1909 7.73477L43.4413 7.95978ZM43.7467 7.15259C43.8299 7.34973 43.2276 7.34013 43.309 7.49419C43.7408 7.47136 43.5268 7.31262 43.9153 7.38485L43.7467 7.15259ZM45.5867 10.8906L45.4135 10.935L45.5381 10.9432L45.5867 10.8906ZM40.795 7.32456L40.8608 7.26966L40.5305 7.25409L40.795 7.32456ZM40.9268 7.2171C40.9268 7.2171 40.8608 7.26556 40.8608 7.26778L40.9268 7.21662V7.2171ZM45.2758 11.2267L45.4644 11.3419L45.5944 11.293L45.2758 11.2267ZM43.5481 9.77387L43.7681 9.7446C43.7231 9.75046 43.4431 9.62566 43.5481 9.77387ZM38.8323 7.6136L38.5445 7.76626L38.5818 7.7782L38.8673 7.62543L38.8323 7.6136ZM41.9027 10.253C42.0463 10.3971 41.5041 10.3134 41.7936 10.4346C42.044 10.3976 41.9414 10.3235 41.9027 10.253ZM38.6668 9.79354C38.6304 9.80583 38.5973 9.82644 38.57 9.8543C38.6068 9.83288 38.64 9.81134 38.6668 9.79354ZM38.6668 9.79354C38.7777 9.75233 38.9041 9.76603 38.9718 9.70749C38.8068 9.67647 38.7663 9.72904 38.6668 9.79354ZM37.4314 10.3312L37.5323 10.2942C37.4663 10.4094 37.5068 10.3761 37.5691 10.2801C37.6682 10.2256 37.6432 10.1846 37.6432 10.1493C37.6546 10.1218 37.6682 10.0944 37.6818 10.0651C37.6604 10.0953 37.6401 10.126 37.6201 10.157C37.4605 10.2311 37.3669 10.2865 37.4314 10.3312ZM31.5492 11.7365C31.9129 11.4141 32.0156 11.3419 32.0856 11.4398C32.416 11.131 32.2215 11.0447 32.3752 10.8064C32.0428 11.2052 31.932 11.2464 31.5492 11.7365ZM32.3769 10.8064C32.4138 10.7611 32.4547 10.7241 32.4997 10.6752C32.4434 10.7241 32.4024 10.763 32.3769 10.8064ZM39.2673 10.9801C39.2673 10.9801 39.2286 11.0387 39.1919 11.1014C39.155 11.1622 39.12 11.2248 39.12 11.2248L39.1859 11.1737C39.1859 11.1737 39.2654 10.9761 39.2677 10.9801H39.2673ZM31.0692 12.2702C31.1296 12.2021 31.2111 12.085 31.2851 12.0534C31.2074 11.9574 31.0087 12.3389 31.0692 12.2702ZM33.9124 12.4619C33.986 12.4773 34.1455 12.2725 34.2423 12.2218C34.1242 12.3137 33.8715 12.2373 33.9124 12.4619ZM30.7078 13.676C30.7588 13.6055 30.8942 13.5333 30.9469 13.6348C30.9624 13.4981 30.877 13.2383 30.7078 13.676ZM33.3992 12.9978L33.4673 12.9823L33.5973 12.7239L33.3992 12.9978ZM35.28 13.5155C35.3851 13.2306 34.7223 13.5667 34.9905 13.162C34.4506 13.4963 35.1538 13.2617 34.8333 13.5763C35.0374 13.4085 35.2605 13.4592 35.28 13.5155ZM34.8315 13.5763C34.8005 13.5996 34.7692 13.6275 34.7401 13.6604C34.7769 13.6293 34.8078 13.6019 34.8315 13.5763ZM31.9343 16.46C31.936 16.413 31.9301 16.3799 31.9243 16.3466C31.9224 16.3837 31.9243 16.4212 31.9343 16.46ZM34.0151 14.751L34.0928 14.2956C34.0656 14.4502 33.9469 14.6632 33.8619 14.8472C33.7683 15.0269 33.747 15.2029 33.8405 15.238C33.9783 15.0679 34.1047 14.8393 34.0928 14.6949L34.0151 14.751ZM28.5179 18.3953L28.4729 18.1415L28.4034 18.4365C28.4483 18.3583 28.5743 18.5361 28.5179 18.3953ZM28.3898 18.495L28.4034 18.4387C28.3951 18.4562 28.3901 18.4758 28.3898 18.495ZM32.1964 15.6487C32.2724 15.5235 32.317 15.416 32.3419 15.2793C32.282 15.3085 32.0933 15.6232 32.1964 15.6487ZM28.6483 20.0964L28.6329 19.7055L28.6266 20.1312L28.6483 20.0964ZM28.3257 21.9399L28.2906 22.0121C28.2906 22.0121 28.3121 22.0944 28.3412 22.1744C28.372 22.2544 28.4015 22.3345 28.4015 22.3345L28.4306 22.2604C28.4306 22.2604 28.3975 22.1822 28.372 22.1021L28.3257 21.9399ZM32.416 19.8559C32.4392 19.6657 32.2896 19.4978 32.2393 19.5431C32.2393 19.5431 32.2351 19.5664 32.231 19.6017C32.2255 19.6369 32.2197 19.684 32.2215 19.7306L32.2178 19.9204C32.3888 19.838 32.2097 19.8147 32.276 19.5998C32.2665 19.6017 32.416 19.8559 32.416 19.8559ZM35.7096 32.7916C35.5578 32.8309 35.1069 32.4811 35.1383 32.3773C35.2256 32.3773 35.5037 32.4965 35.3773 32.342H34.8605C34.4542 31.8925 35.4319 32.2775 35.7156 32.3365C35.4741 32.17 35.296 32.1019 35.1092 32.0333C34.9228 31.967 34.7242 31.9021 34.4778 31.7068C34.6137 31.8358 34.6641 31.967 34.7182 32.0644C34.6255 32.2465 34.1955 31.8143 33.8483 31.5715C34.0151 31.8006 33.8483 31.7636 33.6419 31.7008C33.6178 31.6862 33.5906 31.6785 33.5624 31.6775C33.5388 31.6698 33.5147 31.6634 33.4906 31.6579L33.531 31.689C33.5155 31.7032 33.5083 31.7301 33.5155 31.7809C33.8405 31.9589 33.9706 32.2542 34.161 32.3987C34.1588 32.1976 34.32 32.3164 34.5415 32.4632C34.7633 32.6119 35.0274 32.8153 35.1791 32.8506L35.486 33.001L35.595 33.0655C35.6009 33.1085 35.5506 33.1281 35.3519 33.0814C35.5132 33.1258 36.001 33.37 35.9969 33.263L36.5528 33.5287C36.6928 33.595 36.831 33.6636 36.9414 33.6988C37.05 33.7399 37.1223 33.7656 37.1223 33.7656C37.1532 33.7912 37.1842 33.8181 37.2018 33.8493C37.2486 33.8452 37.2619 33.8337 37.2619 33.8181C37.2619 33.8181 37.5786 33.9316 38.0509 34.1036C38.2923 34.1763 38.5777 34.2444 38.8827 34.3226C39.1877 34.4027 39.5123 34.485 39.8469 34.526C40.1791 34.5745 40.5091 34.6235 40.82 34.6683C41.1327 34.6843 41.4245 34.6994 41.6749 34.7136C41.9254 34.7237 42.1336 34.735 42.2795 34.7369C42.4254 34.7292 42.509 34.725 42.509 34.725C42.2445 34.7213 42.0191 34.6294 41.7509 34.5846C42.1586 34.3989 41.3136 34.5261 41.4418 34.3363C41.6245 34.2755 41.8832 34.3089 42.0368 34.3638C42.095 34.2677 41.8773 34.1703 41.9063 34.0546C41.5876 33.9783 41.4009 34.0546 41.2086 34.1369C41.0163 34.2228 40.82 34.3106 40.5072 34.2206C40.5482 34.1077 40.7523 34.0354 40.3422 33.9884L40.449 33.9788C39.7709 34.0057 39.9881 33.6421 39.5159 33.8863L39.5613 33.7221C39.2459 33.7752 38.6768 33.6288 38.35 33.5662L38.3795 33.5406C37.911 33.4916 37.7851 33.4446 37.6509 33.3942C37.5187 33.3335 37.3692 33.2809 36.8718 33.1107L36.9514 33.1144C36.9978 33.1185 37.0641 33.1185 37.1301 33.1162L37.3905 33.1085C37.0873 32.9127 36.9336 33.0691 36.7082 32.9365C36.7373 32.9151 36.7373 32.776 36.9646 32.8523C36.9646 32.8523 36.6501 32.7842 36.3373 32.7175C36.1778 32.6822 36.0182 32.6452 35.9001 32.6196C35.7796 32.5927 35.706 32.5629 35.706 32.5629C35.3851 32.5157 35.7018 32.7038 35.7096 32.7916Z" fill="#DC2626"/>
</g>
<mask id="mask3_7066_32" style="mask-type:luminance" maskUnits="userSpaceOnUse" x="32" y="28" width="14" height="7">
<path d="M32.4553 28.835H45.7205V34.7369H32.4553V28.835Z" fill="white"/>
</mask>
<g mask="url(#mask3_7066_32)">
<path d="M34.4754 31.7068C34.4195 31.6529 34.3582 31.6044 34.2927 31.5624C34.359 31.619 34.4191 31.6639 34.4754 31.7068ZM42.8858 34.704L42.5103 34.7237C42.6271 34.7292 42.7499 34.725 42.8858 34.7036V34.704ZM32.8218 30.8211C32.9291 31.0382 32.6123 30.7954 32.5382 30.8156L33.1468 31.3666C33.1873 31.3141 33.2941 31.3141 33.3191 31.2573L32.8218 30.8211ZM33.2436 31.6209C33.2922 31.6072 33.3873 31.6269 33.4887 31.6557C33.4887 31.6557 33.395 31.5916 33.3118 31.5171C33.2282 31.4429 33.1446 31.3666 33.1446 31.3666C33.1173 31.4055 33.125 31.4741 33.2436 31.6209ZM35.4163 28.8876L35.5014 28.9585L35.6668 29.0183C35.6668 29.0183 35.6027 28.9873 35.5386 28.9581C35.4959 28.9375 35.4549 28.9141 35.4158 28.8876H35.4163ZM36.6772 30.1328C36.6131 29.9764 36.3563 29.9083 36.2672 29.885C36.5217 30.0373 36.3936 30.0021 36.6772 30.1328ZM36.9354 29.0481L37.1863 29.1341L37.1745 29.1049L36.9354 29.0481ZM45.4698 33.6559L45.6311 33.6032C45.5762 33.6152 45.5221 33.633 45.4698 33.6559Z" fill="#DC2626"/>
</g>
<path d="M42.5338 34.2132C43.3811 34.3638 41.9856 34.3989 42.2479 34.6276L42.7124 34.5256L42.6756 34.5924L43.2429 34.5412C43.1189 34.436 43.0316 34.4337 43.0507 34.3144C43.803 34.313 43.2956 34.4593 43.8647 34.5394L44.706 34.3889L44.6442 34.4337C44.7138 34.4205 44.7429 34.4008 44.7642 34.377C44.7642 34.377 44.8093 34.3697 44.8851 34.3537C44.9628 34.3423 45.0737 34.3185 45.202 34.2796C45.4602 34.2051 45.806 34.1077 46.1519 34.008C46.4979 33.9119 46.8242 33.7555 47.0769 33.6636L47.4928 33.4976C47.9379 33.2196 47.1487 33.4076 47.4342 33.1085C46.8806 33.316 46.0334 33.5012 46.0411 33.7166C46.0511 33.6792 46.0701 33.6087 45.9478 33.6106L45.6683 33.8845L46.0024 33.8612C45.8606 33.998 45.5106 34.1292 45.1669 34.2132C44.8229 34.2933 44.4824 34.2874 44.3743 34.2485C44.9938 34.0743 44.6383 33.9376 45.5165 33.8416C45.4638 33.7948 45.2856 33.7322 45.466 33.6518C44.9861 33.8296 44.5043 33.8826 44.0238 33.9608C43.5479 34.0642 43.0602 34.0784 42.5338 34.2129V34.2132ZM51.6977 30.1662L51.7073 30.1877C51.7113 30.1662 51.7096 30.1566 51.6977 30.1662ZM51.4278 30.3793L51.2137 30.8878L51.7814 30.3423L51.7096 30.1877C51.6901 30.2641 51.5441 30.5083 51.4237 30.5357L51.4273 30.3793H51.4278ZM50.8605 31.3803C51.1341 31.0657 50.9823 30.929 50.7687 31.0127C50.9828 30.6999 51.0468 31.036 51.1009 30.7158C51.0019 30.618 50.7282 30.9857 50.6583 31.0675L50.8605 31.3803ZM48.2737 32.9251L48.3419 32.8057L48.0796 32.9091L48.2737 32.9251ZM48.3419 32.8057L48.6024 32.7019C48.5574 32.6589 48.5128 32.616 48.4546 32.5999L48.3419 32.8057ZM49.261 32.3754C49.3696 32.3265 49.4864 32.2657 49.6264 32.1856L49.261 32.3754ZM48.9615 32.5003L48.9833 32.5158L49.261 32.3754C49.1542 32.4221 49.0588 32.4632 48.9615 32.5003ZM48.6024 32.7001C48.7055 32.7998 48.8219 32.9008 49.1542 32.653L48.9833 32.5181C48.9833 32.5181 48.6065 32.7097 48.6024 32.7001ZM38.5212 30.0958L38.7699 30.1076L38.7544 30.0803L38.5052 30.0688L38.5212 30.0958ZM39.7938 30.6313C39.8562 30.6235 39.9066 30.6121 39.9516 30.5965C39.887 30.5965 39.8348 30.6043 39.7938 30.6318V30.6313Z" fill="#DC2626"/>
<path d="M40.9307 29.928C41.1699 30.1017 40.548 30.0469 41.0202 30.1818C41.0493 30.313 40.7948 30.4342 40.5712 30.3382C40.6098 30.2252 40.8084 30.2974 40.6857 30.1585C40.5111 30.27 40.468 30.1703 40.4894 30.3519C40.208 30.4282 40.1553 30.5279 39.9493 30.5965C40.0349 30.5965 40.1339 30.6258 40.2507 30.651C40.3671 30.6729 40.4958 30.698 40.6258 30.7213C40.888 30.7607 41.1639 30.8192 41.3835 30.704C41.6284 30.5028 41.5098 30.2051 41.5366 29.9006C41.5235 29.8594 41.3812 29.8416 41.2417 29.8241C41.0998 29.8085 40.9558 29.8296 40.9307 29.928ZM40.5867 29.5681C40.4762 29.537 40.4376 29.5465 40.3653 29.5502C40.3611 29.66 40.4935 29.5621 40.5867 29.5681ZM43.4725 31.9743C43.4957 31.9277 43.7466 31.834 43.6802 31.7677C43.6802 31.7677 43.2993 31.8848 43.2971 31.8711C43.3925 31.8769 43.4297 31.9241 43.4725 31.9743Z" fill="#DC2626"/>
<path d="M43.1285 31.9044L43.2994 31.8733C43.2566 31.8711 43.2044 31.8788 43.1285 31.9044ZM43.4939 32L43.4726 31.9767C43.4685 31.9863 43.4703 31.994 43.4939 32ZM50.2698 31.7946C50.3143 31.8673 50.4561 31.6967 50.5261 31.613C50.4524 31.6598 50.3379 31.7109 50.2698 31.7946ZM54.7428 25.3107L54.8692 25.1574C54.8088 25.2063 54.7778 25.232 54.7428 25.3107ZM53.161 22.2271C53.1456 22.2216 53.1338 22.2074 53.1242 22.19C53.1319 22.2065 53.1447 22.2192 53.161 22.2271ZM53.1242 22.19C53.0715 22.0784 53.2329 21.7715 53.1202 21.6449L53.151 21.6622L53.0987 21.4432C53.097 21.5429 53.0951 21.6993 53.0911 21.8457C53.0792 21.9888 53.0811 22.1256 53.1242 22.19Z" fill="#DC2626"/>
<path d="M74.0052 13.787C72.958 13.1481 71.8087 12.6375 70.558 12.2542C69.3012 11.8709 68.1011 11.6794 66.9581 11.6794C65.6311 11.6794 64.5613 11.9249 63.7487 12.4169C62.9423 12.9153 62.5392 13.6752 62.5392 14.6974C62.5392 15.7191 62.9903 16.4921 63.8914 17.016C64.7995 17.5462 66.1708 18.0827 68.0057 18.6257C69.7518 19.1368 71.18 19.6475 72.2914 20.1585C73.4023 20.6697 74.3483 21.4199 75.1294 22.4103C75.9035 23.3939 76.2908 24.7003 76.2908 26.3291C76.2908 28.7242 75.3961 30.5449 73.6052 31.7903C71.8087 33.0358 69.5774 33.6588 66.9107 33.6588C65.044 33.6588 63.2284 33.355 61.463 32.7484C59.7043 32.1413 58.2219 31.2792 57.0155 30.1614L58.6825 26.9038C59.7301 27.862 61.0219 28.6287 62.5586 29.2034C64.1012 29.7781 65.5994 30.0655 67.0535 30.0655C68.5138 30.0655 69.688 29.794 70.5771 29.2511C71.4662 28.7081 71.9104 27.8779 71.9104 26.7602C71.9104 25.6102 71.4435 24.7481 70.5102 24.1733C69.571 23.598 68.1517 23.0265 66.2535 22.4581C64.5707 21.9793 63.1963 21.4905 62.1297 20.9921C61.0698 20.5006 60.1649 19.7752 59.4155 18.8171C58.6731 17.8591 58.3015 16.6136 58.3015 15.0807C58.3015 12.717 59.1583 10.9445 60.8727 9.76319C62.5871 8.58136 64.7268 7.99023 67.2916 7.99023C68.8152 7.99023 70.3167 8.20755 71.796 8.6419C73.269 9.06973 74.5449 9.65135 75.6242 10.3857L74.0052 13.787ZM112.376 8.03842C115.265 8.03842 117.535 8.91649 119.186 10.673C120.836 12.4297 121.662 14.8251 121.662 17.8591V33.5152H117.186V19.0568C117.186 16.9168 116.608 15.2403 115.452 14.0266C114.291 12.813 112.694 12.2064 110.662 12.2064C108.288 12.2701 106.418 13.1162 105.053 14.745C103.688 16.3739 103.005 18.4661 103.005 21.0207V33.5152H98.5295V19.0568C98.5295 16.9168 97.9583 15.2403 96.8152 14.0266C95.6727 12.813 94.0695 12.2064 92.0058 12.2064C89.6252 12.2701 87.746 13.1162 86.3684 14.745C84.9902 16.3739 84.3015 18.4661 84.3015 21.0207V33.5152H79.8735V8.18216H84.3015V13.4997C85.9462 9.92282 89.0698 8.10208 93.6726 8.03842C95.9899 8.03842 97.9166 8.59724 99.4534 9.71501C100.996 10.8326 102.037 12.3978 102.577 14.41C104.132 10.226 107.399 8.10208 112.376 8.03842ZM137.574 8.03842C140.082 8.03842 142.314 8.58135 144.269 9.66723C146.218 10.7531 147.739 12.2606 148.831 14.1895C149.929 16.1246 150.478 18.3383 150.478 20.8293C150.478 23.3138 149.929 25.5306 148.831 27.4787C147.739 29.4266 146.218 30.9441 144.269 32.03C142.314 33.1158 140.082 33.6588 137.574 33.6588C135.034 33.6588 132.79 33.1158 130.841 32.03C128.892 30.9441 127.369 29.4362 126.27 27.5073C125.178 25.572 124.632 23.3462 124.632 20.8293C124.632 18.3383 125.178 16.1246 126.27 14.1895C127.369 12.2606 128.892 10.7531 130.841 9.66723C132.79 8.58135 135.034 8.03842 137.574 8.03842ZM137.574 11.9185C135.923 11.9185 134.457 12.3018 133.175 13.0686C131.892 13.8352 130.892 14.8952 130.174 16.2492C129.463 17.6098 129.108 19.1527 129.108 20.877C129.108 22.6273 129.463 24.1891 130.174 25.5625C130.892 26.9357 131.892 27.9993 133.175 28.7528C134.457 29.5003 135.923 29.8741 137.574 29.8741C139.193 29.8741 140.647 29.5003 141.936 28.7528C143.218 27.9993 144.215 26.9357 144.926 25.5625C145.644 24.1891 146.002 22.6273 146.002 20.877C146.002 19.1527 145.644 17.6098 144.926 16.2492C144.215 14.8952 143.218 13.8352 141.936 13.0686C140.647 12.3018 139.193 11.9185 137.574 11.9185ZM167.476 37.1078C166.683 39.0558 165.629 40.525 164.315 41.5149C163.001 42.5054 161.455 43 159.677 43C158.598 43 157.614 42.8405 156.724 42.5213C155.836 42.2021 154.979 41.7069 154.153 41.0362L156.058 37.5389C157.169 38.3374 158.296 38.7366 159.439 38.7366C161.344 38.7366 162.772 37.6507 163.724 35.479L164.677 33.2271L154.249 8.18216H158.915L166.905 28.4844L174.476 8.18216H179L167.476 37.1078Z" fill="#0327AB"/>
</svg>
